# xmcd
#
# Track frame offsets: 
#        150
#        12966
#        27453
#        39775
#        53806
#        65665
#        79201
#        90855
#        103220
#        116023
#        128345
#        143934
#        159395
#        171917
#        185788
#        196776
#        209890
#        222241
#        235634
#        248942
#        258327
#        271112
#        283787
#        296551
#
# Disc length: 4108 seconds
#
# Revision: 3
# Processed by: cddbd v1.5.2PL0 Copyright (c) Steve Scherf et al.
# Submitted via: ExactAudioCopy v0.95a5
#
DISCID=5f100a18
DTITLE=Blind Boy Fuller - Volume 2 - Disc C
DYEAR=2006
DGENRE=Blues
TTITLE0=Cedar Creek Sheik - Ford V-8
TTITLE1=Cedar Creek Sheik - Watch The Fords Go By
TTITLE2=Cedar Creek Sheik - Mary Had A Little Lamb
TTITLE3=Cedar Creek Sheik - She's Totin' Something Good
TTITLE4=Cedar Creek Sheik - What A Pity
TTITLE5=Cedar Creek Sheik - I Believe Somebody's Been Ridin' My Mule
TTITLE6=Cedar Creek Sheik - Don't Use That Stuff
TTITLE7=Cedar Creek Sheik - Buy It From The Poultry Man
TTITLE8=Cedar Creek Sheik - Don't Credit My Stuff
TTITLE9=Cedar Creek Sheik - Jimmy Shut His Store Doors
TTITLE10="Roosevelt" Antrim - No Use Of Worryin'
TTITLE11="Roosevelt" Antrim - Complaint To Make
TTITLE12="Roosevelt" Antrim - I Guess You're Satisfied
TTITLE13="Roosevelt" Antrim - Station Boy Blues
TTITLE14=Virgil Childers - Dago Blues
TTITLE15=Virgil Childers - Red River Blues
TTITLE16=Virgil Childers - Who's That Knockin' At My Door
TTITLE17=Virgil Childers - Somebody Stole My Jane
TTITLE18=Virgil Childers - Travelin' Man
TTITLE19=Virgil Childers - Preacher And The Bear
TTITLE20=Sonny Jones - Won't Somebody Pacify My Mind
TTITLE21=Sonny Jones - I'm Pretty Good At It
TTITLE22=Sonny Jones - Love Me With A Feeling
TTITLE23=Sonny Jones - Dough Roller
EXTD=
EXTT0=
EXTT1=
EXTT2=
EXTT3=
EXTT4=
EXTT5=
EXTT6=
EXTT7=
EXTT8=
EXTT9=
EXTT10=
EXTT11=
EXTT12=
EXTT13=
EXTT14=
EXTT15=
EXTT16=
EXTT17=
EXTT18=
EXTT19=
EXTT20=
EXTT21=
EXTT22=
EXTT23=
PLAYORDER=
